<svg version="1.2" xmlns="http://www.w3.org/2000/svg" viewBox="0 0 8015 6571" width="8015" height="6571">
	<title>tokenum-svg</title>
	<style>
		.s0 { fill: #fefefe } 
		.s1 { fill: #369e69 } 
		.s2 { fill: #055497 } 
		.s3 { fill: #47c2cd } 
		.s4 { fill: #f65bdf } 
		.s5 { fill: #fe789d } 
		.s6 { fill: #4d158d } 
		.s7 { fill: #fab131 } 
		.s8 { fill: #7a7b7b } 
	</style>
	<g id="Layer_x0020_1">
		<g id="_2105699124736">
			<path id="Layer" fill-rule="evenodd" class="s0" d="m187 632c104 0 187 84 187 187 0 104-83 187-187 187-103 0-187-83-187-187 0-103 84-187 187-187z"/>
			<path id="Layer" fill-rule="evenodd" class="s0" d="m1030 874h-104l-24 65h-35l96-248h16c10 0 17 5 21 17l89 231h-34zm-94-28h84l-41-113h-1zm184-84h32v25c5-8 12-15 20-20 9-5 18-8 26-8h24c17 0 30 6 41 17 10 12 16 27 16 45v118h-33v-118c0-10-3-17-8-23-5-6-11-9-19-9h-22c-11 0-20 3-28 11-8 8-14 18-16 31v108h-33zm268 250c-17 0-31-5-42-14-11-9-17-22-18-36h33c0 6 3 11 8 15 5 4 11 6 19 6h30c11 0 19-4 25-11 6-7 9-18 9-31v-24c-5 7-12 12-19 16-8 4-16 6-23 6h-25c-13 0-25-3-35-8-9-6-17-14-23-25-5-10-8-22-8-35v-40c0-14 3-27 9-38 6-10 14-19 24-25q16.5-9 36-9h24c7 0 15 2 23 7 8 4 14 9 19 15v-19h31v179c0 22-6 39-18 52-12 12-28 19-49 19zm23-102c11 0 20-4 28-13 8-9 12-20 13-34v-37q-1.5-16.5-12-27c-7-7-16-10-26-10h-24c-11 0-20 3-27 11-7 8-11 19-11 32v38c0 12 3 21 10 29 6 8 14 11 24 11zm186 32c-21 0-38-6-50-18-13-12-19-27-19-47v-49c0-21 6-37 19-50 12-12 29-19 50-19h29c20 0 37 7 49 19 12 12 18 28 18 49v33h-132v17c0 11 3 20 10 27 6 6 15 10 26 10h27c11 0 20-3 26-9 7-5 10-13 10-22h33c0 18-7 32-19 43-13 11-29 16-50 16zm63-108v-7c0-12-3-21-9-29-6-7-15-10-25-10h-29c-11 0-20 4-26 11-7 7-10 17-10 30v5zm127 105c-19 0-32-3-40-11-9-8-13-21-13-39v-198h33v197c0 8 2 14 5 17 4 4 9 6 17 6h14v28z"/>
			<path id="Layer" fill-rule="evenodd" class="s1" d="m187 1299c104 0 187 83 187 187 0 103-83 187-187 187-103 0-187-84-187-187 0-104 84-187 187-187z"/>
			<path id="Layer" fill-rule="evenodd" class="s2" d="m187 2005c104 0 187 84 187 187 0 104-83 187-187 187-103 0-187-83-187-187 0-103 84-187 187-187z"/>
			<path id="Layer" fill-rule="evenodd" class="s3" d="m187 2754c104 0 187 84 187 187 0 104-83 188-187 188-103 0-187-84-187-188 0-103 84-187 187-187z"/>
			<path id="Layer" fill-rule="evenodd" class="s4" d="m187 3443c104 0 187 84 187 187 0 103-83 187-187 187-103 0-187-84-187-187 0-103 84-187 187-187z"/>
			<path id="Layer" fill-rule="evenodd" class="s5" d="m187 4131c104 0 187 84 187 187 0 104-83 188-187 188-103 0-187-84-187-188 0-103 84-187 187-187z"/>
			<path id="Layer" fill-rule="evenodd" class="s6" d="m187 4820c104 0 187 84 187 187 0 103-83 187-187 187-103 0-187-84-187-187 0-103 84-187 187-187z"/>
			<path id="Layer" fill-rule="evenodd" class="s7" d="m187 5508c104 0 187 84 187 188 0 103-83 187-187 187-103 0-187-84-187-187 0-104 84-188 187-188z"/>
			<path id="Layer" fill-rule="evenodd" class="s8" d="m187 6197c104 0 187 84 187 187 0 104-83 187-187 187-103 0-187-83-187-187 0-103 84-187 187-187z"/>
			<path id="Layer" fill-rule="evenodd" class="s0" d="m899 1315h34v249h-34zm117 249c-8 0-15-2-20-7-5-5-7-11-7-20v-222h108c18 0 34 4 48 11 13 7 24 16 31 29 8 13 12 27 12 43v76c0 29-8 52-23 67-15 15-37 23-66 23zm82-30q27 0 42-15c9-11 14-26 14-46v-74c0-16-5-29-16-39-11-10-24-14-42-14h-73v188zm214 33c-18 0-33-4-46-11-13-8-23-19-31-32-7-14-10-30-10-48v-72c0-18 3-34 10-48 8-14 18-25 31-32 13-8 29-11 46-11h38c17 0 32 3 45 11 13 7 24 18 31 32 7 14 11 30 11 48v72c0 18-4 34-11 48-7 13-18 24-31 32-13 7-28 11-45 11zm37-30c16 0 29-6 39-17q15-16.5 15-45v-70q0-28.5-15-45c-10-12-23-17-39-17h-37c-16 0-29 5-39 17q-15 16.5-15 45v70q0 28.5 15 45c10 11 23 17 39 17z"/>
			<path id="Layer" fill-rule="evenodd" class="s0" d="m1086 2219h-104l-24 66h-35l96-249h16c10 0 17 5 21 17l89 232h-34zm-94-28h84l-41-112h-1zm236 96c-19 0-35-6-47-18-12-13-18-30-18-50v-42c0-14 3-27 9-38 5-11 13-19 24-25 10-7 22-10 35-10h24c8 0 16 2 23 6 7 3 13 8 18 14v-88h33v249h-32v-26c-5 9-12 15-20 21-9 5-17 7-26 7zm25-29c11 0 20-4 29-13 8-9 13-20 14-33v-40c-2-12-6-21-13-28-7-7-16-10-25-10h-24q-16.5 0-27 12c-7 8-11 19-11 32v40c0 12 3 22 10 29 6 8 15 11 25 11zm190 27c-6 0-11-2-15-5q-6-4.5-9-15l-62-158h35l51 140 51-140h35l-70 178zm137-201c-7 0-12-2-16-6-5-5-7-10-7-17 0-6 2-12 7-16 4-4 9-6 16-6 7 0 13 2 17 6 4 4 6 10 6 16 0 7-2 12-6 17-4 4-10 6-17 6zm-16 23h33v178h-33zm143 180c-19 0-34-5-46-15-11-11-17-25-17-42h32q0 13.5 9 21c5 6 13 8 22 8h32c9 0 16-1 21-5 6-3 9-8 9-13v-11c0-4-2-7-5-10-3-3-8-5-13-6l-61-10c-13-3-23-8-31-15-8-8-12-16-12-26v-12c0-14 6-25 17-34 11-8 26-13 44-13h30c18 0 32 5 43 15 11 10 16 23 16 39h-32c0-8-3-14-8-19-5-4-11-6-19-6h-29c-9 0-16 1-21 5-5 3-8 8-8 14v9c0 4 2 7 5 10 4 3 8 5 13 6l62 11c13 2 23 7 30 14 8 8 12 16 12 26v14c0 13-6 24-17 33-12 8-27 12-46 12zm196 0c-21 0-37-6-50-18-13-13-19-29-19-50v-46c0-21 6-37 19-50 13-12 30-19 51-19h30c21 0 38 7 51 19 12 13 19 29 19 50v46c0 21-7 37-20 50q-19.5 18-51 18zm30-29c11 0 20-3 27-11 7-7 11-17 11-29v-44c0-12-4-22-10-29-7-8-16-11-27-11h-30c-11 0-20 3-27 11-7 7-10 17-10 29v44c0 12 3 22 10 29 6 8 15 11 27 11zm113-151h32v26c5-8 12-14 21-19 9-5 18-7 28-7h19v29h-19c-14 0-26 5-34 13-9 9-14 21-14 35v101h-33z"/>
			<path id="Layer" fill-rule="evenodd" class="s0" d="m888 2781h31l86 160 84-160h32v249h-33v-186l-66 122c-3 6-5 9-8 11-2 3-5 4-8 4h-10l-75-137v186h-33zm337 252c-18 0-32-5-43-14-11-9-16-21-16-37v-11c0-15 6-27 17-36 11-9 25-14 43-14h23c7 0 15 1 23 3 8 2 15 5 20 9v-26c0-9-3-16-8-21-5-5-13-8-21-8h-29c-9 0-17 2-22 6-6 5-8 10-8 17h-33c0-15 6-28 17-37 12-10 27-14 46-14h29q27 0 45 15c11 11 17 25 17 42v123h-31v-24c-5 8-13 14-21 19-9 5-18 8-27 8zm23-28c10 0 19-3 28-9 8-6 13-14 16-24v-11q-6-6-18-9c-8-3-16-4-24-4h-23c-8 0-15 2-20 6-6 5-8 10-8 17v11c0 7 2 13 7 17 6 4 12 6 21 6zm125-153h31v26c5-7 12-14 21-19 9-5 19-7 29-7h18v29h-18c-15 0-27 5-35 14-9 8-13 20-13 35v100h-33zm250 178l-65-80-23 23v57h-33v-249h33v153l82-82h39l-76 76 81 102zm119 3q-31.5 0-51-18c-12-12-19-28-19-47v-50c0-20 7-37 19-50q19.5-18 51-18h29q30 0 48 18c13 12 19 29 19 49v33h-133v18c0 10 4 19 10 26 7 6 16 10 27 10h27c11 0 19-3 26-9 7-5 10-13 10-22h32c0 18-6 32-19 43-12 11-29 17-49 17zm63-109v-7c0-12-3-21-10-28-6-7-14-11-24-11h-29c-11 0-20 4-27 11-6 8-10 18-10 30v5zm144 106c-20 0-34-5-42-13-9-9-13-22-13-41v-95h-32v-29h32v-53h33v53h46v29h-46v94c0 9 2 16 5 20q6 6 18 6h23v29zm90-201c-7 0-13-2-17-6-4-4-6-10-6-16 0-7 2-12 6-17 4-4 10-6 17-6 7 0 12 2 16 6 4 5 6 10 6 17 0 6-2 12-6 16-4 4-9 6-16 6zm-17 23h33v178h-33zm89 0h32v25c5-8 12-15 21-20 8-5 17-7 25-7h24c17 0 31 5 41 17 11 11 16 26 16 44v119h-33v-119c0-9-3-17-8-23-5-6-11-9-19-9h-22c-10 0-20 4-28 11-8 8-13 18-16 31v109h-33zm268 250c-17 0-31-5-42-14q-16.5-13.5-18-36h33q1.5 9 9 15 7.5 6 18 6h30c11 0 19-3 25-11 6-7 9-18 9-31v-23c-5 6-11 11-19 15-8 4-16 6-23 6h-25c-13 0-24-3-34-8-10-6-18-14-23-24q-9-16.5-9-36v-40c0-14 3-26 9-37 6-11 14-20 24-26 11-5 23-8 36-8h24c7 0 15 2 23 6 8 4 15 9 19 16v-20h31v179c0 22-6 39-18 52-12 13-28 19-49 19zm23-101c11 0 21-5 28-14 8-8 12-20 13-33v-38q-1.5-16.5-12-27c-7-7-15-10-25-10h-25q-16.5 0-27 12c-7 8-11 18-11 31v38c0 12 4 22 10 29 6 8 15 12 24 12zm101 57l7-6q21-15 21-39v-19h33v19c0 28-11 49-32 64l-8 6zm275-25c-8 0-16-3-24-8-8-5-15-11-20-18v23h-31v-249h33v90c5-7 11-12 19-16 8-3 16-5 24-5h25c12 0 24 2 33 8 10 6 18 14 23 24 6 10 9 22 9 35v44c0 14-3 27-9 38-5 10-13 19-23 25-10 6-21 9-35 9zm22-30c11 0 19-4 26-11 6-8 9-19 9-32v-42c0-11-3-21-9-28-7-8-15-11-25-11h-23c-11 0-21 4-29 12-8 8-12 19-13 32v40c1 11 5 21 13 29 8 7 17 11 28 11zm173 30c-20 0-37-7-50-19-13-13-19-29-19-50v-46c0-20 7-37 19-50q19.5-18 51-18h30q31.5 0 51 18c13 13 19 30 19 50v46c0 21-7 37-19 50-13 12-30 19-51 19zm30-30c12 0 21-3 28-11 6-7 10-17 10-29v-44c0-12-3-22-10-29-7-8-16-11-27-11h-30c-11 0-20 3-27 11-6 7-10 17-10 29v44c0 12 3 22 10 29 7 8 16 11 27 11zm169 30q-25.5 0-42-18c-10-11-16-27-16-46v-117h33v118c0 10 3 18 8 24 5 6 11 9 19 9h22q15 0 27-12c8-8 14-18 16-30v-109h34v178h-32v-26c-5 8-13 15-21 21-9 5-17 8-25 8zm150-181h32v25c5-8 12-15 21-20 8-5 17-7 25-7h24c17 0 31 5 41 17 11 11 16 26 16 44v119h-33v-119c0-9-2-17-7-23-5-6-12-9-20-9h-22c-10 0-19 4-28 11-8 8-13 18-16 31v109h-33zm279 178c-20 0-34-5-42-13-9-9-13-22-13-41v-95h-32v-29h32v-53h33v53h46v29h-46v94c0 9 2 16 5 20q6 6 18 6h23v29zm126 72c-17 0-31-5-42-14q-16.5-13.5-18-36h33c0 6 3 11 8 15 5 4 11 6 19 6h28c10 0 19-3 25-11 6-7 9-18 9-31v-29c-6 8-12 15-21 20-8 5-16 7-24 7h-23c-17 0-31-5-42-17-10-12-16-27-16-46v-114h33v115c0 10 3 18 8 24 5 6 12 9 20 9h21c10 0 19-4 28-12 8-8 13-18 16-30v-106h33v179c0 22-6 39-18 52-12 13-29 19-49 19zm122-44l7-6c14-10 20-23 20-39v-19h34v19c0 28-11 49-32 64l-9 6zm261-25c-21 0-37-7-50-19-12-12-19-28-19-48v-48c0-20 7-37 19-50 12-12 29-18 49-18h29c19 0 35 5 47 16 12 11 18 25 18 43h-33c0-9-3-16-9-22-6-6-13-8-23-8h-28c-11 0-19 3-26 11-6 7-10 17-10 30v45c0 12 4 21 10 28 7 7 15 10 26 10h28c10 0 18-3 24-10 6-7 9-16 9-28h33c0 20-6 36-18 49-12 12-28 19-48 19zm194 0c-21 0-38-7-50-19-13-13-19-29-19-50v-46c0-20 6-37 19-50q19.5-18 51-18h29c22 0 38 6 51 18 13 13 19 30 19 50v46c0 21-6 37-19 50-13 12-30 19-51 19zm30-30c11 0 20-3 27-11 7-7 10-17 10-29v-44c0-12-3-22-10-29-6-8-15-11-27-11h-29c-12 0-20 3-27 11-7 7-10 17-10 29v44c0 12 3 22 10 29 6 8 15 11 26 11zm310-153q25.5 0 39 15c10 11 15 25 15 44v121h-33v-122c0-9-2-16-7-21-4-6-9-8-16-8h-19c-9 0-16 3-22 9-6 6-10 15-12 26v116h-33v-120c0-10-2-18-6-23-4-6-9-8-16-8h-18c-9 0-17 4-23 11-7 8-11 18-13 31v109h-33v-178h32v24c4-8 10-15 17-19 7-5 14-7 22-7h20c10 0 18 2 25 7 7 4 13 11 17 20 5-9 11-16 19-21 7-4 16-6 24-6zm299 0q24 0 39 15c9 11 14 25 14 44v121h-33v-122q0-13.5-6-21c-4-6-10-8-17-8h-18c-9 0-17 3-23 9-6 6-10 15-11 26v116h-34v-120c0-10-2-18-6-23-4-6-9-8-15-8h-19c-9 0-16 4-23 11-7 8-11 18-12 31v109h-34v-178h32v24c5-8 11-15 18-19 7-5 14-7 21-7h21c9 0 18 2 25 7 6 4 12 11 16 20 5-9 12-16 19-21 8-4 16-6 25-6zm156 183c-17 0-31-6-41-18-11-11-16-27-16-46v-117h33v118c0 10 2 18 7 24 5 6 12 9 20 9h21c10 0 19-4 28-12 8-8 13-18 16-30v-109h33v178h-31v-26c-6 8-13 15-22 21-8 5-17 8-25 8zm151-181h31v25c5-8 12-15 21-20 9-5 17-7 26-7h23c17 0 31 5 42 17 10 11 15 26 15 44v119h-33v-119c0-9-2-17-7-23-5-6-12-9-20-9h-22c-10 0-19 4-27 11-9 8-14 18-16 31v109h-33zm229-23c-7 0-12-2-17-6-4-4-6-10-6-16 0-7 2-12 6-17 5-4 10-6 17-6 7 0 13 2 17 6 4 5 6 10 6 17 0 6-2 12-6 16-4 4-10 6-17 6zm-17 23h33v178h-33zm162 178c-20 0-34-5-42-13-9-9-13-22-13-41v-95h-32v-29h32v-53h33v53h46v29h-46v94c0 9 2 16 5 20q6 6 18 6h23v29zm126 72c-17 0-31-5-42-14-11-9-17-21-19-36h34c0 6 3 11 8 15 5 4 11 6 19 6h28c10 0 19-3 25-11 6-7 9-18 9-31v-29c-6 8-13 15-21 20-8 5-16 7-24 7h-23c-17 0-31-5-42-17-10-12-16-27-16-46v-114h33v115c0 10 3 18 8 24 5 6 12 9 20 9h21c10 0 19-4 28-12 8-8 13-18 16-30v-106h33v179c0 22-6 39-18 52-12 13-29 19-49 19z"/>
			<path id="Layer" fill-rule="evenodd" class="s0" d="m915 3718c-9 0-15-2-20-7-5-5-7-11-7-19v-222h33v218h135v30zm196-200c-6 0-12-3-16-7-5-4-7-9-7-16 0-7 2-12 7-16 4-4 10-6 16-6 7 0 13 2 17 6 4 4 6 9 6 16 0 7-2 12-6 16-4 4-10 7-17 7zm-16 23h33v177h-33zm214 158c-4 7-11 12-19 16-7 4-15 6-22 6h-26c-20 0-35-6-47-19-12-12-18-29-18-49v-43c0-14 3-27 8-38 6-11 14-19 24-25 11-6 22-9 36-9h25c7 0 15 2 23 6 7 4 14 10 18 16v-19h32v249h-34zm-41-7c12 0 21-4 28-13 8-9 12-20 13-33v-41q-1.5-16.5-12-27c-7-7-15-11-25-11h-26c-11 0-19 4-26 12-7 8-10 19-10 32v40q0 19.5 9 30c6 7 14 11 25 11zm180 29c-17 0-31-6-42-17-10-12-16-27-16-46v-117h33v118c0 10 3 18 8 24 5 6 11 9 19 9h22q15 0 27-12c8-8 14-18 16-31v-108h33v177h-31v-25c-6 8-13 15-21 20-9 5-17 8-25 8zm173-203c-7 0-12-3-16-7-5-4-7-9-7-16 0-7 2-12 7-16 4-4 9-6 16-6 7 0 13 2 17 6 4 4 6 9 6 16 0 7-2 12-6 16-4 4-10 7-17 7zm-16 23h33v177h-33zm147 180c-20 0-36-6-47-19-12-12-18-29-18-49v-42c0-15 2-27 8-38 6-11 14-20 24-26q15-9 36-9h24c8 0 15 2 22 5q12 6 18 15v-88h33v248h-31v-25c-5 8-12 15-21 20-8 5-17 8-25 8zm24-29c11 0 21-5 29-14 9-9 13-20 14-32v-40c-2-12-6-21-13-28-7-7-15-11-25-11h-24c-11 0-20 4-27 13-7 8-10 19-10 32v39c0 13 3 22 9 30 7 7 15 11 25 11zm149-174c-7 0-12-3-16-7-5-4-7-9-7-16 0-7 2-12 7-16 4-4 9-6 16-6 7 0 13 2 17 6 4 4 6 9 6 16 0 7-2 12-6 16-4 4-10 7-17 7zm-16 23h33v177h-33zm161 177c-20 0-34-4-42-13-9-8-13-22-13-41v-94h-31v-29h31v-54h33v54h46v29h-46v94c0 9 2 15 5 19q6 6 18 6h23v29zm126 72c-17 0-31-4-42-13-11-10-17-22-18-37h33c0 7 3 12 8 16 5 4 11 6 19 6h28c10 0 19-4 25-11 6-8 9-18 9-31v-29c-6 8-12 14-20 19-8 5-17 8-25 8h-23q-25.5 0-42-18c-10-11-16-26-16-45v-114h33v114c0 10 3 18 8 25 5 6 12 9 20 9h22c9 0 19-4 27-12 8-8 13-19 16-31v-105h33v179c0 22-6 39-18 52-12 12-28 18-49 18z"/>
			<path id="Layer" fill-rule="evenodd" class="s0" d="m949 4188h-79v-30h191v30h-79v219h-33zm194 222c20 0 37-6 49-17 13-11 19-25 19-43h-32c0 10-3 17-10 23-7 5-15 8-26 8h-27c-11 0-20-3-27-10-6-7-10-15-10-26v-17h133v-34c0-20-6-37-19-49q-18-18-48-18h-29q-31.5 0-51 18c-12 13-19 30-19 51v49c0 19 7 35 19 47q19.5 18 51 18zm-64-109v-5c0-12 4-22 10-30 7-7 16-11 27-11h29c10 0 18 4 24 11 7 7 10 16 10 28v7zm248 109c9 0 18-3 27-8 8-5 16-11 21-19v24h31v-123c0-17-6-31-17-42q-18-15-45-15h-29c-19 0-34 4-46 14-11 9-17 22-17 37h33c0-7 2-12 8-17 5-4 13-6 22-6h29c8 0 16 3 21 8 5 5 8 12 8 21v26c-5-4-12-7-20-9-8-2-16-3-23-3h-23c-18 0-32 5-43 14-11 9-17 21-17 36v12c0 15 5 27 16 36 11 9 25 14 43 14zm-19-28c-9 0-15-2-21-6-5-4-7-10-7-17v-10c0-8 2-13 8-18 5-4 12-6 20-6h23c8 0 16 1 24 4q12 3 18 9v11c-3 10-8 18-16 24-9 6-18 9-28 9zm322-155c-9 0-17 2-25 7-7 4-14 11-19 20-4-9-10-15-16-20-7-5-16-7-25-7h-21c-7 0-14 2-21 7-7 5-13 11-18 19v-23h-31v177h33v-109c1-13 5-23 12-31 7-7 14-11 23-11h19c6 0 11 3 15 8 4 5 6 13 6 23v120h34v-116c1-11 5-20 11-26 6-6 14-9 23-9h18c7 0 13 2 17 8q6 7.5 6 21v122h33v-121c0-19-5-33-14-44q-15-15-39-15z"/>
			<path id="Layer" fill-rule="evenodd" class="s0" d="m888 4847h124c19 0 35 5 47 16 11 11 17 25 17 42v26c0 12-4 23-11 33-8 9-19 16-32 20 14 9 25 24 31 46l20 65h-35l-19-64c-3-11-9-20-16-26q-10.5-9-24-9h-69v99h-33zm115 119c12 0 21-4 29-10 7-6 10-15 10-25v-26c0-9-2-15-8-21-6-5-13-8-22-8h-91v90zm179 132c-20 0-37-6-50-18-13-12-19-27-19-47v-49c0-21 6-37 19-50 13-13 30-19 50-19h30c20 0 36 6 48 19 13 12 19 28 19 49v33h-133v17c0 11 4 20 10 26 7 7 16 10 26 10h28c10 0 19-2 26-8 6-6 10-13 10-22h32c0 18-6 32-19 43-12 11-29 16-50 16zm64-108v-7c0-12-3-22-10-29-6-7-14-10-24-10h-30c-10 0-19 3-26 11-6 7-10 17-10 29v6zm300-72l-38 154q-3 12-9 18c-4 4-9 5-15 5h-16l-43-126-44 126h-15c-6 0-11-1-16-5-4-4-7-10-8-18l-38-154h35l29 136 45-131h12c5 0 8 1 11 3q3 3 6 9l40 120 29-137zm82 180c-17 0-32-4-42-13-11-10-16-22-16-37v-12c0-15 5-27 16-36 12-9 26-13 44-13h22c8 0 15 1 23 3q12 3 21 9v-26c0-9-3-16-8-21-6-6-13-8-22-8h-29q-13.5 0-21 6c-6 4-9 10-9 17h-32c0-16 5-28 17-38 11-9 26-14 45-14h29c19 0 34 5 45 16 12 11 18 24 18 42v122h-31v-23c-6 8-13 14-22 19-8 5-17 7-26 7zm23-27c11 0 20-3 28-9 8-6 14-14 17-25v-10c-5-4-11-7-19-10-7-2-16-3-24-3h-23c-8 0-15 2-20 6-5 4-8 10-8 17v11c0 7 3 12 8 17 5 4 12 6 20 6zm125-153h32v26c4-8 11-14 21-19 9-5 18-8 28-8h19v30h-19c-14 0-26 4-35 13-8 9-13 21-13 35v100h-33zm182 180c-20 0-35-6-47-19-12-12-18-29-18-49v-42c0-15 2-27 8-38 6-11 14-20 24-26q15-9 36-9h24c8 0 15 2 22 6 8 3 14 8 18 14v-88h34v248h-32v-25c-5 8-12 15-21 20-8 6-17 8-25 8zm24-29c11 0 21-5 29-14 9-9 13-20 14-32v-40c-2-12-6-21-13-28-7-7-15-11-25-11h-24c-11 0-20 4-27 13-7 8-10 19-10 32v40c0 12 3 21 9 29 7 7 15 11 25 11zm264 98c-17-25-29-50-37-75-8-25-12-53-12-82v-7c0-30 4-58 12-83 8-26 20-50 37-73h35q-25.5 37.5-39 75-12 37.5-12 81v7c0 28 4 54 12 79q13.5 39 39 78zm99-72c-8 0-15-2-19-7-5-4-8-11-8-19v-222h34v219h135v29zm175-248h124c20 0 36 5 48 16 12 11 18 26 18 44v36c0 19-7 34-19 46q-19.5 18-51 18h-86v88h-34zm120 130c11 0 19-4 26-10 7-7 10-15 10-26v-34c0-9-3-16-9-22-6-6-14-9-23-9h-90v101zm54 147l7-6c14-10 20-23 20-39v-19h34v19c0 28-11 49-32 64l-9 6zm268-26c-23 0-41-7-55-20-14-14-21-33-21-56h33c0 14 4 25 12 34 8 8 19 12 32 12h39c13 0 24-3 31-8 8-6 12-13 12-23v-19c0-7-3-13-8-18-6-5-14-9-24-10l-64-11c-19-3-34-9-44-19-11-10-16-23-16-38v-19c0-18 7-32 21-43 13-11 31-16 53-16h41c14 0 26 3 37 9 10 5 19 13 25 24q9 16.5 9 36h-34c0-11-3-21-10-28-7-7-16-11-27-11h-41c-12 0-21 3-29 8-7 5-11 13-11 22v16c0 7 3 14 8 19 5 5 13 8 23 10l64 11c19 3 35 10 45 19 11 10 16 22 16 36v23c0 18-7 33-21 44-14 11-32 16-55 16zm230-3q-30 0-42-12c-9-9-13-23-13-42v-94h-31v-29h31v-54h33v54h46v29h-46v94c0 9 2 15 5 20q6 6 18 6h23v28zm115 3c-17 0-32-4-42-13-11-10-16-22-16-37v-12c0-15 5-27 16-36 12-9 26-13 44-13h23c7 0 14 1 22 3q12 3 21 9v-26c0-9-3-16-8-21-6-6-13-8-22-8h-29q-13.5 0-21 6c-6 4-9 10-9 17h-32c0-16 5-28 17-38 11-9 27-14 45-14h29c19 0 34 5 45 16 12 11 18 24 18 42v122h-31v-23c-6 8-13 14-22 19-8 5-17 7-26 7zm23-27c11 0 20-3 28-9 8-6 14-14 17-25v-10c-5-4-11-7-19-10q-10.5-3-24-3h-23c-8 0-15 2-20 6-5 4-8 10-8 17v11c0 7 3 12 8 17 5 4 12 6 20 6zm178 24c-19 0-32-4-40-12-9-7-13-20-13-38v-198h33v197c0 8 2 14 5 17 3 4 9 6 16 6h15v28zm166 0l-64-79-23 22v57h-33v-248h33v152l82-81h39l-77 76 82 101zm90-200c-7 0-13-2-17-7-4-4-7-9-7-16 0-6 3-12 7-16 4-4 10-6 17-6 6 0 12 2 16 6 4 4 6 10 6 16 0 7-2 12-6 16-4 5-10 7-16 7zm-17 23h33v177h-33zm89 0h32v25c5-8 12-15 20-20 9-5 18-8 26-8h24c17 0 30 6 41 17 11 12 16 27 16 45v118h-33v-118c0-10-3-18-8-24-5-6-11-9-19-9h-22c-10 0-20 4-28 12-8 8-14 18-16 31v108h-33zm268 249c-17 0-31-4-42-13-11-10-17-22-18-37h33c1 7 3 12 8 16 5 4 12 6 19 6h30c11 0 19-4 25-11 6-8 9-18 9-31v-24c-5 7-12 12-19 16-8 4-16 6-23 6h-25c-13 0-24-3-34-9q-15-7.5-24-24c-5-10-8-22-8-36v-39c0-14 3-27 9-38 6-11 14-19 24-25q16.5-9 36-9h24c7 0 15 2 23 6 8 5 14 10 19 16v-19h31v179c0 22-6 39-18 52-12 12-28 18-49 18zm23-101c11 0 21-4 28-13 8-9 12-20 13-34v-37q-1.5-16.5-12-27c-7-7-16-11-25-11h-25q-16.5 0-27 12c-7 8-11 19-11 32v37c0 12 4 22 10 30 6 7 14 11 24 11zm110 101c18-26 31-52 39-77 8-26 12-52 12-80v-7c0-29-4-56-12-82-9-25-22-50-39-74h35c17 23 29 47 37 73 8 25 12 53 12 83v7c0 29-4 57-12 82-8 25-20 50-37 75z"/>
			<path id="Layer" fill-rule="evenodd" class="s0" d="m888 5535h124c19 0 35 6 47 17 12 11 18 25 18 44v35c0 19-6 35-19 46-13 12-30 18-50 18h-87v89h-33zm119 130c11 0 20-3 26-10 7-6 10-15 10-25v-34c0-9-3-17-9-22-6-6-13-9-23-9h-90v100zm157 119c-19 0-32-4-41-12q-12-12-12-39v-198h33v197c0 8 2 14 5 18 3 3 9 5 16 5h15v29zm98 3c-17 0-32-5-42-14-11-9-16-21-16-36v-12c0-15 5-27 16-36 12-9 26-14 44-14h23c7 0 14 1 22 3 8 3 15 5 21 9v-26c0-8-3-15-8-21-6-5-13-8-22-8h-29c-9 0-16 2-21 7-6 4-9 9-9 16h-32c0-15 5-28 17-37 11-9 27-14 45-14h29c19 0 34 5 46 16 11 10 17 24 17 41v123h-31v-24c-6 8-13 15-22 19-8 5-17 8-26 8zm23-28c11 0 20-3 28-9 8-6 14-14 17-24v-11c-5-4-11-7-19-9-7-3-15-4-24-4h-22c-9 0-16 2-21 7-5 4-8 10-8 17v10c0 7 3 13 8 17q7.5 6 21 6zm186 97c-17 0-30-5-41-14-11-9-18-21-19-36h33c1 6 4 12 9 16q7.5 6 18 6h28c11 0 19-4 25-12q9-10.5 9-30v-30c-5 8-12 15-20 20-8 5-16 8-24 8h-23q-25.5 0-42-18c-11-11-16-27-16-46v-113h33v114c0 10 3 18 8 24 5 6 11 9 19 9h22q15 0 27-12c8-8 14-18 16-30v-105h34v179c0 21-6 39-18 51-12 13-29 19-50 19zm137-99c0-14 2-26 7-36 5-10 13-18 24-26l88-62c6-4 10-8 13-13 3-6 4-11 4-16v-12q0-13.5-9-21c-6-6-14-8-25-8h-32c-12 0-21 4-27 11-7 8-11 19-11 33h-33c0-23 6-41 19-55 12-13 29-20 51-20h33c21 0 37 6 50 17 12 11 18 25 18 43v12c0 21-10 39-30 52l-85 59c-8 6-13 11-16 17-4 5-5 13-5 22h139v30h-173zm238 27c-9 0-15-2-20-7-5-5-7-11-7-20v-222h174v30h-141v77h131v29h-131v83h141v30zm237 3c-18 0-32-5-43-14-10-9-16-21-16-36v-12c0-15 6-27 17-36 11-9 26-14 44-14h22c7 0 15 1 23 3 8 3 15 5 21 9v-26q0-12-9-21c-5-5-12-8-21-8h-29c-9 0-16 2-22 7-5 4-8 9-8 16h-33c0-15 6-28 18-37 11-9 26-14 45-14h29c19 0 34 5 45 16 12 10 17 24 17 41v123h-31v-24c-5 8-12 15-21 19-9 5-18 8-27 8zm23-28c11 0 20-3 28-9 8-6 13-14 17-24v-11c-5-4-11-7-19-9-8-3-16-4-24-4h-23c-8 0-15 2-20 7-5 4-8 10-8 17v10c0 7 3 13 8 17 5 4 12 6 20 6zm125-152h31v26c5-8 12-15 21-20 9-5 19-7 29-7h18v29h-18c-15 0-26 5-35 14-9 9-13 20-13 35v100h-33zm129 0h32v24c5-8 12-14 21-20 8-5 17-7 25-7h24c17 0 31 5 41 17 11 11 16 26 16 45v118h-33v-118c0-10-3-18-8-24-4-6-11-9-19-9h-22c-10 0-20 4-28 12-8 7-13 18-16 30v109h-33z"/>
			<path id="Layer" fill-rule="evenodd" class="s0" d="m888 6224h124c19 0 35 5 47 16 11 11 17 25 17 42v26c0 12-4 23-11 33-8 9-19 16-32 20v1c14 8 25 23 31 45l20 65h-35l-19-64c-3-11-9-19-16-26q-10.5-9-24-9h-69v99h-33zm115 119c12 0 21-3 29-10 7-6 10-15 10-25v-26c0-9-2-15-8-21-6-5-13-7-22-7h-91v89zm179 132c-20 0-37-6-50-18-13-12-19-27-19-47v-49c0-21 6-37 19-50 13-12 30-19 50-19h30c20 0 36 6 48 19 13 12 19 28 19 49v33h-133v17c0 11 4 20 10 27 7 6 16 10 26 10h28c10 0 19-3 26-9 6-5 10-13 10-22h32c0 18-6 32-19 43-12 11-29 16-50 16zm64-108v-7c0-12-3-21-10-29-6-7-14-10-24-10h-30c-10 0-19 3-26 11-6 7-10 17-10 30v5zm128 108c-19 0-34-5-46-16-12-10-17-24-17-41h32c0 8 3 16 9 21 5 5 13 8 22 8h32c9 0 16-1 21-5 6-3 8-8 8-14v-10c0-4-1-7-4-10-4-3-8-5-13-6l-61-11c-13-2-24-7-31-14-8-8-12-16-12-26v-12c0-14 5-25 17-34 11-8 26-13 44-13h30c18 0 32 5 43 15 11 10 16 23 16 39h-32c0-8-3-14-8-19-5-4-11-7-19-7h-29q-13.5 0-21 6c-5 3-8 8-8 14v9c0 4 2 7 5 10 4 3 8 5 13 6l62 11c13 2 23 7 30 14 8 7 12 16 12 26v13c0 14-6 25-18 34q-16.5 12-45 12zm196 0c-21 0-38-6-50-18-13-12-19-27-19-47v-49c0-21 6-37 19-50 12-12 29-19 50-19h29c20 0 37 6 49 19 12 12 18 28 18 49v33h-132v17c0 11 3 20 10 27 6 6 15 10 26 10h27c11 0 20-3 26-9 7-5 10-13 10-22h33c0 18-7 32-19 43-13 11-29 16-50 16zm63-108v-7c0-12-3-21-9-29-6-7-15-10-25-10h-29c-11 0-20 3-26 11-7 7-10 17-10 30v5zm74-72h32v26c5-8 11-14 21-19 9-5 18-8 28-8h19v30h-19c-14 0-26 4-35 13-8 9-13 21-13 35v100h-33zm201 177c-6 0-11-1-15-4-4-4-7-9-10-15l-61-158h35l51 140 51-140h35l-70 177zm172 3c-21 0-38-6-50-18-13-12-19-27-19-47v-49c0-21 6-37 19-50 12-12 29-19 50-19h29c20 0 36 6 49 19 12 12 18 28 18 49v33h-132v17c0 11 3 20 10 27 6 6 15 10 26 10h27c11 0 20-3 26-9 7-5 10-13 10-22h32c0 18-6 32-18 43-13 11-30 16-50 16zm63-108v-7c0-12-3-21-9-29-7-7-15-10-25-10h-29c-11 0-20 3-26 11-7 7-10 17-10 30v5zm132 108c-20 0-35-6-47-19-12-12-18-29-18-49v-42c0-14 3-27 8-38 6-11 14-20 24-26q16.5-9 36-9h24c8 0 15 2 23 6 7 3 13 8 17 14v-88h34v248h-32v-25c-5 9-12 15-20 20-9 6-17 8-26 8zm24-29c12 0 21-4 30-14 8-9 12-19 13-32v-40c-1-12-6-21-13-28-7-7-15-11-25-11h-23c-12 0-21 5-28 13-7 8-10 19-10 32v40c0 12 3 22 10 29 6 7 14 11 24 11zm264 98c-16-24-29-49-37-75-8-25-12-53-12-82v-7c0-30 4-58 12-83 8-25 21-50 37-73h36q-27 37.5-39 75c-9 25-13 52-13 81v7c0 28 4 54 12 79 9 26 22 52 40 78zm146-69c-7 0-15-2-24-7-8-5-15-11-19-18v22h-32v-248h33v90c5-7 12-12 20-16 7-4 15-6 23-6h25c13 0 24 3 34 9 10 6 17 13 23 24 5 10 8 22 8 35v44c0 14-3 27-8 37-6 11-14 19-24 25-10 6-21 9-34 9zm23-29c10 0 19-4 25-12 6-8 10-18 10-31v-42c0-12-4-21-10-29-6-7-14-11-24-11h-23c-12 0-21 5-29 13-8 8-13 19-14 32v39c1 12 6 21 14 29q12 12 27 12zm166 29c-17 0-31-6-42-17-10-12-15-27-15-46v-117h33v118c0 10 2 18 7 24 5 6 11 9 20 9h21q15 0 27-12c9-8 14-18 17-30v-109h33v177h-32v-25c-5 8-12 15-21 20-8 6-17 8-25 8zm150-180h32v26c5-8 12-14 21-19 9-5 18-8 28-8h19v30h-19c-14 0-26 4-34 13-9 9-14 21-14 35v100h-33zm130 0h31v25c6-8 12-15 21-20 9-5 17-8 26-8h23c17 0 31 6 42 17q15 18 15 45v118h-33v-118c0-10-2-17-7-23-5-7-12-10-20-10h-22q-15 0-27 12c-9 8-14 18-16 31v108h-33zm421-79h33l-133 265h-34zm182 108h-31v-29h31v-13c0-19 5-34 16-44 11-11 26-16 46-16h18v29h-18c-10 0-17 2-22 7-5 5-7 13-7 24v13h43v29h-43v148h-33zm168 151c-17 0-31-6-42-17-10-12-16-27-16-46v-117h33v118c0 10 3 18 8 24 5 6 11 9 19 9h22q15 0 27-12c8-8 14-18 16-30v-109h34v177h-32v-25c-5 8-13 15-21 20-9 6-17 8-25 8zm150-180h32v26c5-8 12-14 21-19 9-5 18-8 28-8h19v30h-19c-14 0-26 4-35 13-8 9-13 21-13 35v100h-33zm202 177q-30 0-42-12c-9-9-13-23-13-42v-94h-32v-29h32v-53h33v53h46v29h-46v94c0 9 2 16 5 20q6 6 18 6h23v28zm66-248h34v94c5-8 12-14 20-19 8-4 17-7 25-7h24c17 0 31 6 41 17 11 12 16 27 16 45v118h-33v-118c0-10-3-17-7-23-5-7-12-10-20-10h-23q-15 0-27 12c-9 8-14 18-16 30v109h-34zm270 251c-21 0-38-6-50-18-13-12-19-27-19-47v-49c0-21 6-37 19-50 12-12 29-19 50-19h29c20 0 36 6 49 19 12 12 18 28 18 49v33h-132v17q0 16.5 9 27c7 6 16 10 27 10h27c11 0 19-3 26-9 7-5 10-13 10-22h32c0 18-6 32-18 43-13 11-30 16-50 16zm63-108v-7c0-12-3-21-9-29-7-7-15-10-25-10h-29c-11 0-20 3-27 11q-9 10.5-9 30v5zm74-72h32v26c4-8 11-14 20-19 9-5 19-8 29-8h18v30h-18c-15 0-26 4-35 13-9 9-13 21-13 35v100h-33zm283 180c-20 0-35-6-47-19-12-12-18-29-18-49v-42c0-14 3-27 8-38 6-11 14-20 24-26 11-6 22-9 36-9h24c8 0 15 2 22 6 8 3 14 8 18 14v-88h34v248h-32v-25c-5 9-12 15-21 20-8 6-17 8-25 8zm24-29c11 0 21-4 29-14 9-9 13-19 14-32v-40c-1-12-6-21-13-28-7-7-15-11-25-11h-24c-11 0-20 5-27 13-7 8-10 19-10 32v40c0 12 3 22 10 29 6 7 14 11 24 11zm189 29q-31.5 0-51-18c-12-12-19-27-19-47v-49c0-21 7-37 19-50 13-12 30-19 51-19h29c20 0 36 6 48 19 13 12 19 28 19 49v33h-133v17c0 11 4 20 10 27 7 6 16 10 27 10h27c11 0 19-3 26-9 6-5 10-13 10-22h32c0 18-6 32-19 43-12 11-29 16-49 16zm63-108v-7c0-12-3-21-10-29-6-7-14-10-24-10h-29c-11 0-20 3-27 11-6 7-10 17-10 30v5zm138 105c-6 0-11-1-15-4-4-4-7-9-10-15l-61-158h35l51 140 51-140h35l-70 177zm172 3c-21 0-38-6-50-18-13-12-19-27-19-47v-49c0-21 6-37 19-50 12-12 29-19 50-19h29c20 0 36 6 49 19 12 12 18 28 18 49v33h-132v17c0 11 3 20 10 27 6 6 15 10 26 10h27c11 0 20-3 26-9 7-5 10-13 10-22h33c0 18-7 32-19 43-13 11-29 16-50 16zm63-108v-7c0-12-3-21-9-29-7-7-15-10-25-10h-29c-11 0-20 3-26 11-7 7-10 17-10 30v5zm127 105c-19 0-32-4-40-11-9-8-13-21-13-39v-198h33v197c0 8 2 14 5 17 3 4 9 6 16 6h15v28zm108 3c-21 0-38-6-51-19-12-12-19-29-19-49v-46c0-21 7-37 20-50 12-12 29-19 50-19h30c21 0 38 7 51 19 13 13 19 29 19 50v46c0 20-6 37-19 49-13 13-30 19-51 19zm30-29c11 0 20-4 27-11 7-7 10-17 10-29v-44c0-12-3-22-10-30-7-7-16-11-27-11h-30c-11 0-20 4-26 11-7 8-11 18-11 30v44c0 12 4 22 10 29 7 7 16 11 27 11zm113-151h31v23c5-8 12-14 20-19 8-4 16-7 24-7h24c20 0 36 6 48 19 13 12 19 28 19 48v43c0 14-3 27-9 38-5 11-13 20-23 26-10 6-22 9-35 9h-25c-7 0-15-2-22-5-8-4-14-9-19-15v88h-33zm96 151c11 0 20-4 26-12 7-9 10-20 10-33v-40c0-12-3-21-9-29-7-7-16-11-26-11h-24c-9 0-17 4-24 11-8 7-13 16-16 27v47c1 12 6 22 13 29 8 7 17 11 27 11zm310-154c16 0 29 6 39 16 9 11 14 25 14 43v121h-33v-121c0-9-2-16-6-22-4-5-10-8-17-8h-18c-9 0-17 4-23 10-6 6-10 15-11 26v115h-34v-120c0-9-2-17-6-22-4-6-9-9-16-9h-18c-9 0-17 4-23 12-7 8-11 18-13 30v109h-33v-177h32v24c5-8 11-15 18-20 7-4 14-7 21-7h21c9 0 17 3 24 7 7 5 13 12 17 21 5-9 12-16 19-21 8-4 16-7 25-7zm163 183c-21 0-38-6-50-18-13-12-19-27-19-47v-49c0-21 6-37 19-50 12-12 29-19 50-19h29c20 0 36 6 49 19 12 12 18 28 18 49v33h-132v17c0 11 3 20 10 27 6 6 15 10 26 10h27c11 0 20-3 26-9 7-5 10-13 10-22h33c0 18-7 32-19 43-13 11-29 16-50 16zm63-108v-7c0-12-3-21-9-29-6-7-15-10-25-10h-29c-11 0-20 3-26 11-7 7-10 17-10 30v5zm74-72h32v25c5-8 12-15 21-20 8-5 17-8 25-8h24c17 0 31 6 41 17 11 12 16 27 16 45v118h-33v-118c0-10-3-17-8-23-5-7-11-10-19-10h-22c-10 0-20 4-28 12-8 8-13 18-16 31v108h-33zm279 177q-30 0-42-12c-9-9-13-23-13-42v-94h-32v-29h32v-53h33v53h46v29h-46v94c0 9 1 16 5 20q6 6 18 6h23v28zm162-177h32v23c5-8 11-14 19-19 8-4 16-7 24-7h24c20 0 36 6 49 19q18 18 18 48v43c0 14-3 27-8 38-6 11-14 20-24 26-10 6-22 9-35 9h-25c-7 0-15-2-22-5-8-4-14-9-19-15v88h-33zm96 151q16.5 0 27-12c6-9 10-20 10-33v-40c0-12-4-21-10-29-7-7-15-11-26-11h-24c-9 0-17 4-24 11-8 7-13 16-16 27v47c1 12 6 22 13 29 8 7 17 11 27 11zm166 26c-19 0-33-4-41-11q-12-12-12-39v-198h33v197c0 8 1 14 5 17 3 4 8 6 16 6h14v28zm98 3c-18 0-32-4-43-13-10-10-16-22-16-37v-12c0-14 6-26 17-36 11-9 26-13 44-13h22c7 0 15 1 23 3 8 2 15 5 20 9v-26c0-9-2-16-8-21-5-6-12-8-21-8h-29c-9 0-16 2-22 6-5 4-8 10-8 17h-33c0-16 6-28 18-37q16.5-15 45-15h29c19 0 34 6 45 16 11 11 17 25 17 42v122h-31v-23c-5 8-12 14-21 19-9 5-18 7-27 7zm23-27c10 0 20-3 28-9 8-6 13-14 16-24v-11c-4-4-10-7-18-10q-12-3-24-3h-23c-8 0-15 2-20 6-5 4-8 10-8 17v11c0 7 3 13 8 17 5 4 12 6 20 6zm125-153h31v25c6-8 12-15 21-20 9-5 17-8 26-8h23c17 0 31 6 42 17 10 12 16 27 16 45v118h-34v-118c0-10-2-17-7-23-5-7-11-10-20-10h-22q-15 0-27 12c-9 8-14 18-16 31v108h-33zm192 249c18-26 31-52 39-77 8-26 12-52 12-80v-7c0-29-4-56-12-82-9-25-22-50-39-74h35c17 23 29 48 37 73 8 25 12 53 12 83v7c0 29-4 57-12 82-8 26-20 51-37 75z"/>
		</g>
	</g>
</svg>